# Blender 4.3.0
# www.blender.org
mtllib cube.mtl
o Cube
v -0.480000 -0.500000 -0.480000
v -0.480000 -0.500000 0.480000
v -0.500000 -0.500000 -0.480000
v -0.500000 -0.500000 0.480000
v -0.480000 -0.500000 -0.500000
v -0.500000 -0.480000 -0.500000
v -0.500000 -0.500000 -0.500000
v -0.480000 -0.500000 0.500000
v -0.500000 -0.500000 0.500000
v 0.480000 -0.500000 0.480000
v 0.480000 -0.500000 -0.500000
v 0.480000 -0.500000 0.500000
v 0.500000 -0.500000 0.480000
v 0.500000 -0.500000 -0.500000
v 0.500000 -0.480000 0.500000
v 0.500000 -0.500000 0.500000
v 0.480000 -0.500000 -0.480000
v 0.500000 -0.500000 -0.480000
v -0.480000 0.500000 -0.480000
v -0.480000 0.480000 -0.480000
v -0.480000 0.500000 0.480000
v -0.480000 0.480000 0.480000
v -0.500000 0.500000 -0.480000
v -0.500000 0.480000 -0.480000
v -0.500000 0.500000 0.480000
v -0.500000 0.480000 0.480000
v -0.480000 0.500000 -0.500000
v -0.480000 0.480000 -0.500000
v -0.500000 0.500000 -0.500000
v -0.500000 0.480000 -0.500000
v -0.480000 0.500000 0.500000
v -0.480000 0.480000 0.500000
v -0.500000 0.500000 0.500000
v -0.500000 0.480000 0.500000
v 0.480000 0.500000 0.480000
v 0.480000 0.480000 0.480000
v 0.480000 0.500000 -0.500000
v 0.480000 0.480000 -0.500000
v 0.480000 0.500000 0.500000
v 0.480000 0.480000 0.500000
v 0.500000 0.500000 0.480000
v 0.500000 0.480000 0.480000
v 0.500000 0.500000 -0.500000
v 0.500000 0.480000 -0.500000
v 0.500000 0.500000 0.500000
v 0.500000 0.480000 0.500000
v 0.480000 0.500000 -0.480000
v 0.480000 0.480000 -0.480000
v 0.500000 0.500000 -0.480000
v 0.500000 0.480000 -0.480000
v -0.480000 -0.480000 -0.480000
v -0.500000 -0.480000 -0.480000
v -0.500000 -0.480000 0.480000
v -0.480000 -0.480000 0.480000
v -0.480000 -0.480000 -0.500000
v -0.500000 -0.480000 0.500000
v -0.480000 -0.480000 0.500000
v 0.480000 -0.480000 0.480000
v 0.480000 -0.480000 0.500000
v 0.500000 -0.480000 0.480000
v 0.480000 -0.480000 -0.500000
v 0.500000 -0.480000 -0.500000
v 0.500000 -0.480000 -0.480000
v 0.480000 -0.480000 -0.480000
vn -0.0000 1.0000 -0.0000
vn -1.0000 -0.0000 -0.0000
vn -0.0000 -1.0000 -0.0000
vn 1.0000 -0.0000 -0.0000
vn -0.0000 -0.0000 -1.0000
vn -0.0000 -0.0000 1.0000
vt 0.875000 0.500000
vt 0.625000 0.750000
vt 0.625000 0.500000
vt 0.375000 0.000000
vt 0.625000 0.000000
vt 0.375000 0.250000
vt 0.375000 0.500000
vt 0.125000 0.750000
vt 0.125000 0.500000
vt 0.375000 0.750000
vt 0.625000 0.250000
vt 0.375000 1.000000
vt 0.875000 0.750000
vt 0.625000 1.000000
s 0
usemtl Material
f 52/1/1 54/2/1 51/3/1
f 4/4/2 56/5/2 53/5/2
f 53/5/2 3/6/2 4/4/2
f 1/7/3 4/8/3 3/9/3
f 51/3/4 2/10/4 1/7/4
f 52/11/2 7/6/2 3/6/2
f 7/6/5 55/3/5 5/7/5
f 3/9/3 5/7/3 1/7/3
f 57/2/1 58/2/1 54/2/1
f 57/2/6 9/12/6 8/10/6
f 2/10/3 9/8/3 4/8/3
f 5/7/3 17/7/3 1/7/3
f 58/2/2 17/10/2 10/10/2
f 11/7/3 18/7/3 17/7/3
f 8/10/6 59/2/6 57/2/6
f 51/3/1 61/3/1 55/3/1
f 2/10/3 12/10/3 8/10/3
f 54/2/5 10/10/5 2/10/5
f 1/7/6 64/3/6 51/3/6
f 55/3/5 11/7/5 5/7/5
f 18/7/4 62/3/4 63/3/4
f 60/2/4 16/10/4 13/10/4
f 10/10/3 16/10/3 12/10/3
f 61/3/5 14/7/5 11/7/5
f 59/2/6 16/10/6 15/2/6
f 13/10/4 63/2/4 60/2/4
f 60/2/1 64/2/1 58/2/1
f 10/10/3 18/10/3 13/10/3
f 23/1/1 21/2/1 19/3/1
f 26/4/2 33/5/2 25/5/2
f 25/5/2 24/6/2 26/4/2
f 20/7/3 26/8/3 24/9/3
f 19/3/4 22/10/4 20/7/4
f 23/11/2 30/6/2 24/6/2
f 29/11/5 28/7/5 30/6/5
f 48/10/6 63/10/6 50/10/6
f 19/3/1 29/1/1 23/1/1
f 31/2/1 35/2/1 21/2/1
f 31/2/6 34/12/6 32/10/6
f 24/9/6 51/7/6 20/7/6
f 25/13/1 31/2/1 21/2/1
f 28/7/3 48/7/3 20/7/3
f 35/2/2 48/10/2 36/10/2
f 34/12/6 57/10/6 32/10/6
f 32/10/6 39/2/6 31/2/6
f 19/3/1 37/3/1 27/3/1
f 22/10/3 40/10/3 32/10/3
f 21/2/5 36/10/5 22/10/5
f 20/7/6 47/3/6 19/3/6
f 27/3/5 38/7/5 28/7/5
f 50/7/4 43/3/4 49/3/4
f 41/2/4 46/10/4 42/10/4
f 22/10/5 53/8/5 26/8/5
f 47/3/1 43/3/1 37/3/1
f 37/3/5 44/7/5 38/7/5
f 39/2/1 41/2/1 35/2/1
f 40/10/6 45/2/6 39/2/6
f 42/10/4 49/2/4 41/2/4
f 41/2/1 47/2/1 35/2/1
f 36/10/3 50/10/3 42/10/3
f 36/10/2 59/10/2 40/10/2
f 42/10/5 58/10/5 36/10/5
f 26/4/2 56/4/2 34/4/2
f 24/6/2 6/6/2 52/6/2
f 40/10/6 15/10/6 46/10/6
f 50/7/4 62/7/4 44/7/4
f 20/7/4 55/7/4 28/7/4
f 32/10/4 54/10/4 22/10/4
f 28/7/5 6/6/5 30/6/5
f 42/10/4 15/10/4 60/10/4
f 38/7/2 64/7/2 48/7/2
f 44/7/5 61/7/5 38/7/5
f 52/1/1 53/13/1 54/2/1
f 4/4/2 9/4/2 56/5/2
f 53/5/2 52/11/2 3/6/2
f 1/7/3 2/10/3 4/8/3
f 51/3/4 54/2/4 2/10/4
f 52/11/2 6/11/2 7/6/2
f 7/6/5 6/11/5 55/3/5
f 3/9/3 7/9/3 5/7/3
f 57/2/1 59/2/1 58/2/1
f 57/2/6 56/14/6 9/12/6
f 2/10/3 8/10/3 9/8/3
f 5/7/3 11/7/3 17/7/3
f 58/2/2 64/2/2 17/10/2
f 11/7/3 14/7/3 18/7/3
f 8/10/6 12/10/6 59/2/6
f 51/3/1 64/3/1 61/3/1
f 2/10/3 10/10/3 12/10/3
f 54/2/5 58/2/5 10/10/5
f 1/7/6 17/7/6 64/3/6
f 55/3/5 61/3/5 11/7/5
f 18/7/4 14/7/4 62/3/4
f 60/2/4 15/2/4 16/10/4
f 10/10/3 13/10/3 16/10/3
f 61/3/5 62/3/5 14/7/5
f 59/2/6 12/10/6 16/10/6
f 13/10/4 18/10/4 63/2/4
f 60/2/1 63/2/1 64/2/1
f 10/10/3 17/10/3 18/10/3
f 23/1/1 25/13/1 21/2/1
f 26/4/2 34/4/2 33/5/2
f 25/5/2 23/11/2 24/6/2
f 20/7/3 22/10/3 26/8/3
f 19/3/4 21/2/4 22/10/4
f 23/11/2 29/11/2 30/6/2
f 29/11/5 27/3/5 28/7/5
f 48/10/6 64/10/6 63/10/6
f 19/3/1 27/3/1 29/1/1
f 31/2/1 39/2/1 35/2/1
f 31/2/6 33/14/6 34/12/6
f 24/9/6 52/9/6 51/7/6
f 25/13/1 33/13/1 31/2/1
f 28/7/3 38/7/3 48/7/3
f 35/2/2 47/2/2 48/10/2
f 34/12/6 56/12/6 57/10/6
f 32/10/6 40/10/6 39/2/6
f 19/3/1 47/3/1 37/3/1
f 22/10/3 36/10/3 40/10/3
f 21/2/5 35/2/5 36/10/5
f 20/7/6 48/7/6 47/3/6
f 27/3/5 37/3/5 38/7/5
f 50/7/4 44/7/4 43/3/4
f 41/2/4 45/2/4 46/10/4
f 22/10/5 54/10/5 53/8/5
f 47/3/1 49/3/1 43/3/1
f 37/3/5 43/3/5 44/7/5
f 39/2/1 45/2/1 41/2/1
f 40/10/6 46/10/6 45/2/6
f 42/10/4 50/10/4 49/2/4
f 41/2/1 49/2/1 47/2/1
f 36/10/3 48/10/3 50/10/3
f 36/10/2 58/10/2 59/10/2
f 42/10/5 60/10/5 58/10/5
f 26/4/2 53/4/2 56/4/2
f 24/6/2 30/6/2 6/6/2
f 40/10/6 59/10/6 15/10/6
f 50/7/4 63/7/4 62/7/4
f 20/7/4 51/7/4 55/7/4
f 32/10/4 57/10/4 54/10/4
f 28/7/5 55/7/5 6/6/5
f 42/10/4 46/10/4 15/10/4
f 38/7/2 61/7/2 64/7/2
f 44/7/5 62/7/5 61/7/5
